<svg xmlns="http://www.w3.org/2000/svg" viewBox="0 0 16 16" shape-rendering="crispEdges"><rect width="16" height="16" fill="#1a1a2e"/><rect x="3" y="6" width="1" height="1" fill="#86efac"/><rect x="3" y="7" width="1" height="1" fill="#86efac"/><rect x="3" y="8" width="1" height="1" fill="#86efac"/><rect x="3" y="9" width="1" height="1" fill="#86efac"/><rect x="4" y="6" width="1" height="1" fill="#86efac"/><rect x="4" y="7" width="1" height="1" fill="#4ade80"/><rect x="4" y="8" width="1" height="1" fill="#4ade80"/><rect x="4" y="9" width="1" height="1" fill="#22c55e"/><rect x="5" y="6" width="1" height="1" fill="#86efac"/><rect x="5" y="7" width="1" height="1" fill="#4ade80"/><rect x="5" y="8" width="1" height="1" fill="#4ade80"/><rect x="5" y="9" width="1" height="1" fill="#22c55e"/><rect x="6" y="3" width="1" height="1" fill="#86efac"/><rect x="6" y="4" width="1" height="1" fill="#86efac"/><rect x="6" y="5" width="1" height="1" fill="#86efac"/><rect x="6" y="6" width="1" height="1" fill="#4ade80"/><rect x="6" y="7" width="1" height="1" fill="#4ade80"/><rect x="6" y="8" width="1" height="1" fill="#4ade80"/><rect x="6" y="9" width="1" height="1" fill="#4ade80"/><rect x="6" y="10" width="1" height="1" fill="#86efac"/><rect x="6" y="11" width="1" height="1" fill="#86efac"/><rect x="6" y="12" width="1" height="1" fill="#86efac"/><rect x="7" y="3" width="1" height="1" fill="#86efac"/><rect x="7" y="4" width="1" height="1" fill="#4ade80"/><rect x="7" y="5" width="1" height="1" fill="#4ade80"/><rect x="7" y="6" width="1" height="1" fill="#4ade80"/><rect x="7" y="7" width="1" height="1" fill="#4ade80"/><rect x="7" y="8" width="1" height="1" fill="#4ade80"/><rect x="7" y="9" width="1" height="1" fill="#4ade80"/><rect x="7" y="10" width="1" height="1" fill="#4ade80"/><rect x="7" y="11" width="1" height="1" fill="#4ade80"/><rect x="7" y="12" width="1" height="1" fill="#22c55e"/><rect x="8" y="3" width="1" height="1" fill="#86efac"/><rect x="8" y="4" width="1" height="1" fill="#4ade80"/><rect x="8" y="5" width="1" height="1" fill="#4ade80"/><rect x="8" y="6" width="1" height="1" fill="#4ade80"/><rect x="8" y="7" width="1" height="1" fill="#4ade80"/><rect x="8" y="8" width="1" height="1" fill="#4ade80"/><rect x="8" y="9" width="1" height="1" fill="#4ade80"/><rect x="8" y="10" width="1" height="1" fill="#4ade80"/><rect x="8" y="11" width="1" height="1" fill="#4ade80"/><rect x="8" y="12" width="1" height="1" fill="#22c55e"/><rect x="9" y="3" width="1" height="1" fill="#86efac"/><rect x="9" y="4" width="1" height="1" fill="#22c55e"/><rect x="9" y="5" width="1" height="1" fill="#22c55e"/><rect x="9" y="6" width="1" height="1" fill="#4ade80"/><rect x="9" y="7" width="1" height="1" fill="#4ade80"/><rect x="9" y="8" width="1" height="1" fill="#4ade80"/><rect x="9" y="9" width="1" height="1" fill="#4ade80"/><rect x="9" y="10" width="1" height="1" fill="#22c55e"/><rect x="9" y="11" width="1" height="1" fill="#22c55e"/><rect x="9" y="12" width="1" height="1" fill="#22c55e"/><rect x="10" y="6" width="1" height="1" fill="#86efac"/><rect x="10" y="7" width="1" height="1" fill="#4ade80"/><rect x="10" y="8" width="1" height="1" fill="#4ade80"/><rect x="10" y="9" width="1" height="1" fill="#22c55e"/><rect x="11" y="6" width="1" height="1" fill="#86efac"/><rect x="11" y="7" width="1" height="1" fill="#4ade80"/><rect x="11" y="8" width="1" height="1" fill="#4ade80"/><rect x="11" y="9" width="1" height="1" fill="#22c55e"/><rect x="12" y="6" width="1" height="1" fill="#86efac"/><rect x="12" y="7" width="1" height="1" fill="#22c55e"/><rect x="12" y="8" width="1" height="1" fill="#22c55e"/><rect x="12" y="9" width="1" height="1" fill="#22c55e"/><rect x="12" y="3" width="1" height="1" fill="#fbbf24"/><rect x="13" y="2" width="1" height="1" fill="#fde68a"/><rect x="13" y="3" width="1" height="1" fill="#fbbf24"/><rect x="13" y="4" width="1" height="1" fill="#fbbf24"/><rect x="14" y="3" width="1" height="1" fill="#fbbf24"/><rect x="2" y="12" width="1" height="1" fill="#60a5fa"/><rect x="3" y="2" width="1" height="1" fill="#f472b6"/></svg>